<svg xmlns="http://www.w3.org/2000/svg" viewBox="0 0 24 24" width="24" height="24" aria-label="Contains shellfish">
  <path d="M 10,7.5 A 0.5,0.5 0 0 1 9.5,8 0.5,0.5 0 0 1 9,7.5 0.5,0.5 0 0 1 9.5,7 0.5,0.5 0 0 1 10,7.5 Z M 10,20 8,19 5,20 7,22 9.5,21 M 10,19 8,17 5,18 6,19.6 m 10.6,-1 2.4,2.4 m -2,-8 4,-4 m -3,6 h 4.5 M 13,19 v 3 M 15,12 V 6 m -4,6 c -2,0 -2,2 0,2 M 5,8 C 0,10 0,1 5,1 H 7 M 5,8 C 1,10 1,3 5,3 H 7 M 5,6 h 10 c 10,0 10,16 0,16 h -4 c -2,0 -2,-3 0,-3 h 4 c 4,0 4,-7 0,-7 H 10 C 7,12 6,8 5,6 Z" fill="none" stroke="currentColor"/>
</svg>
