<svg xmlns="http://www.w3.org/2000/svg" viewBox="0 0 24 24" width="24" height="24" aria-label="Contains lactose"><path d="m 12,15 a 2,2 0 0 1 -2,2 2,2 0 0 1 -2,-2 2,2 0 0 1 2,-2 2,2 0 0 1 2,2 z m 6,-3 a 2.5,2.5 0 0 1 -2.5,2.5 2.5,2.5 0 0 1 -2.5,-2.5 2.5,2.5 0 0 1 2.5,-2.5 2.5,2.5 0 0 1 2.5,2.5 M 8,11.5 A 2.5,2.5 0 0 1 5.5,14 2.5,2.5 0 0 1 3,11.5 2.5,2.5 0 0 1 5.5,9 2.5,2.5 0 0 1 8,11.5 Z M 22,8 H 3 m 19,9 v 2 H 6 C -1,19 -1,5 9,5 l 13,3 v 2 c -4,0 -4,7 0,7 z" fill="none" stroke="currentColor"/></svg>
