<svg xmlns="http://www.w3.org/2000/svg" viewBox="0 0 24 24" width="24" height="24" aria-label="Contains lamb"><path d="M 7,7.5 A 0.5,0.5 0 0 1 6.5,8 0.5,0.5 0 0 1 6,7.5 0.5,0.5 0 0 1 6.5,7 0.5,0.5 0 0 1 7,7.5 Z M 11,11 C 10,12 9.3080284,10.098628 9.5,8.5 9.6919716,6.9013718 9,6 8,6 m 5,12 -5,-1 m 12,0 c -3,-3 -4,-3 -6,0 l -3,4 m 0,-10 c 1.671949,-1.4205852 4.015423,-2.0756926 7,-2 5,0 5,8 3,11 -1,1 -4,-1 -5,-1 0,1 0,2 -2,2 H 6 C 3,21 2,17 5,15 L 6,11 C 4,14 0,13 2,9 8,-2 14,6 11,11 Z" fill="none" stroke="currentColor"/></svg>
