<svg xmlns="http://www.w3.org/2000/svg" fill="currentColor" viewBox="0 0 24 24" width="24" height="24" aria-label="Pinterest"><path d="M12 .6a11.4 11.4 0 00-4.2 22 11 11 0 010-3.2l1.4-5.7S9 13 9 12c0-1.6.9-2.8 2-2.8 1 0 1.5.7 1.5 1.6 0 1-.6 2.5-1 3.8-.2 1.2.6 2 1.7 2 2 0 3.6-2 3.6-5.1 0-2.8-2-4.7-4.7-4.7a5 5 0 00-5.2 5c0 1 .4 2 .8 2.6l.1.3-.3 1.3c0 .2-.2.3-.4.2-1.4-.7-2.3-2.8-2.3-4.5 0-3.6 2.6-6.9 7.6-6.9 4 0 7 2.8 7 6.6 0 4-2.5 7.1-6 7.1-1 0-2.2-.6-2.6-1.3L10 20c-.2 1-1 2.3-1.4 3A11.4 11.4 0 1012 .6"/></svg>