<?xml version="1.0" standalone="no"?>
<!DOCTYPE svg PUBLIC "-//W3C//DTD SVG 20010904//EN"
 "http://www.w3.org/TR/2001/REC-SVG-20010904/DTD/svg10.dtd">
<svg version="1.0" xmlns="http://www.w3.org/2000/svg"
 width="301.000000pt" height="301.000000pt" viewBox="0 0 301.000000 301.000000"
 preserveAspectRatio="xMidYMid meet">
<metadata>
Created by potrace 1.11, written by Peter Selinger 2001-2013
</metadata>
<g transform="translate(0.000000,301.000000) scale(0.100000,-0.100000)"
fill="#000000" stroke="none">
<path d="M1300 2965 c-107 -23 -243 -53 -302 -65 l-108 -23 -255 -186 -255
-186 -156 -270 -156 -270 -33 -313 -33 -314 99 -301 99 -302 209 -230 208
-231 287 -127 286 -127 315 0 315 0 285 127 286 127 211 233 210 234 98 299
97 299 -33 312 -33 312 -147 256 c-81 141 -153 265 -160 275 -7 10 -126 101
-264 201 l-251 182 -294 62 c-162 35 -302 64 -312 66 -10 2 -106 -16 -213 -40z
m568 -576 c138 -69 222 -238 222 -449 0 -110 -16 -182 -62 -277 -46 -94 -188
-240 -188 -194 0 6 -22 38 -49 73 l-49 64 41 34 c73 61 115 201 104 350 -9
132 -57 208 -139 217 -125 14 -209 -106 -211 -306 -2 -112 19 -157 147 -316
146 -180 186 -280 172 -430 -24 -257 -156 -436 -361 -491 -69 -19 -219 -18
-286 2 -85 25 -169 74 -230 135 -53 53 -109 145 -109 180 0 11 27 28 81 53 44
20 84 36 89 36 4 0 11 -11 14 -24 9 -35 93 -118 146 -144 93 -44 202 -48 278
-8 45 23 98 89 123 152 18 46 23 80 23 154 1 87 -1 99 -28 147 -16 29 -54 83
-84 120 -146 176 -193 265 -207 393 -19 167 105 417 253 508 68 42 98 50 178
51 60 1 80 -4 132 -30z m-578 -759 c24 -12 45 -36 65 -72 16 -29 46 -81 67
-116 21 -34 38 -65 38 -67 0 -10 -46 -5 -105 10 -79 21 -156 56 -232 107 l-61
42 49 98 50 99 47 -41 c26 -23 63 -50 82 -60z"/>
</g>
</svg>
