<?xml version="1.0" standalone="no"?>
<!DOCTYPE svg PUBLIC "-//W3C//DTD SVG 20010904//EN"
 "http://www.w3.org/TR/2001/REC-SVG-20010904/DTD/svg10.dtd">
<svg version="1.0" xmlns="http://www.w3.org/2000/svg"
 width="1100.000000pt" height="1100.000000pt" viewBox="0 0 1100.000000 1100.000000"
 preserveAspectRatio="xMidYMid meet">
<metadata>
Created by potrace 1.11, written by Peter Selinger 2001-2013
</metadata>
<g transform="translate(0.000000,1100.000000) scale(0.100000,-0.100000)"
fill="#000000" stroke="none">
<path d="M5320 10265 c-407 -78 -774 -312 -1013 -647 -91 -127 -190 -331 -211
-434 -17 -86 -10 -80 -89 -80 -121 -1 -322 -14 -437 -29 -25 -3 -63 -8 -85
-10 -245 -30 -529 -114 -718 -212 l-114 -60 -44 54 c-42 51 -132 131 -209 184
-74 51 -219 108 -320 126 -54 10 -299 9 -355 -1 -235 -42 -526 -181 -746 -358
-204 -163 -252 -223 -251 -311 1 -125 93 -218 212 -213 63 3 106 25 175 91
120 113 271 218 410 284 84 41 190 80 235 87 14 2 36 7 50 10 41 9 178 5 223
-6 111 -29 222 -109 295 -211 11 -16 6 -28 -41 -91 -68 -93 -116 -173 -160
-268 -32 -68 -75 -183 -82 -220 -2 -8 -10 -42 -18 -75 -9 -33 -18 -80 -21
-105 -3 -25 -8 -56 -11 -70 -3 -14 -8 -79 -11 -145 -4 -66 -8 -122 -10 -123
-1 -2 -51 -14 -111 -27 -451 -98 -823 -399 -1063 -860 -95 -182 -144 -322
-200 -570 -18 -78 -25 -172 -25 -320 0 -159 7 -237 30 -310 7 -25 11 -45 10
-45 -11 0 60 -149 96 -204 51 -77 3870 -3899 3991 -3994 404 -316 909 -435
1408 -330 30 6 60 12 65 14 6 1 44 12 85 25 41 12 77 23 80 24 26 5 145 57
230 99 282 141 512 341 690 598 l55 80 65 4 c141 9 331 52 490 111 305 114
573 300 785 543 281 324 456 730 502 1161 10 94 10 364 0 449 -11 98 -20 161
-33 222 -5 23 -1 27 28 34 18 4 35 8 38 9 3 1 23 5 45 10 47 9 200 63 270 96
28 12 52 23 55 24 6 1 107 56 129 70 392 247 646 596 715 984 19 103 12 406
-9 441 -2 4 -7 21 -10 39 -9 52 -55 181 -86 242 -24 48 -325 353 -1957 1985
-1570 1570 -1946 1942 -2023 1996 -154 111 -337 191 -534 234 -58 13 -398 12
-465 -1z"/>
</g>
</svg>
